<svg id="Layer_2" data-name="Layer 2" xmlns="http://www.w3.org/2000/svg" xmlns:xlink="http://www.w3.org/1999/xlink" viewBox="0 0 160 160"><defs><style>.cls-1{fill:url(#linear-gradient);}</style><linearGradient id="linear-gradient" x1="10" y1="80" x2="150" y2="80" gradientUnits="userSpaceOnUse"><stop offset="0" stop-color="#fff"/><stop offset="1" stop-color="#e6e6e6"/></linearGradient></defs><title>x</title><polygon class="cls-1" points="150 30 130 10 80 60 30 10 10 30 60 80 10 130 30 150 80 100 130 150 150 130 100 80 150 30"/><path d="M130,17.07,142.93,30,96.46,76.46,92.93,80l3.53,3.54L142.93,130,130,142.93,83.54,96.46,80,92.93l-3.54,3.53L30,142.93,17.07,130,63.54,83.54,67.07,80l-3.53-3.54L17.07,30,30,17.07,76.46,63.54,80,67.07l3.54-3.53L130,17.07M130,10,80,60,30,10,10,30,60,80,10,130l20,20,50-50,50,50,20-20L100,80l50-50L130,10Z"/></svg>