<?xml version="1.0" encoding="UTF-8" standalone="no"?>
<svg
   xmlns:dc="http://purl.org/dc/elements/1.1/"
   xmlns:cc="http://creativecommons.org/ns#"
   xmlns:rdf="http://www.w3.org/1999/02/22-rdf-syntax-ns#"
   xmlns:svg="http://www.w3.org/2000/svg"
   xmlns="http://www.w3.org/2000/svg"
   xmlns:sodipodi="http://sodipodi.sourceforge.net/DTD/sodipodi-0.dtd"
   xmlns:inkscape="http://www.inkscape.org/namespaces/inkscape"
   viewBox="0 -256 1792 1792"
   id="svg2989"
   version="1.1"
   inkscape:version="0.48.3.1 r9886"
   width="100%"
   height="100%"
   sodipodi:docname="angle_down_font_awesome.svg">
  <g
     transform="matrix(1,0,0,-1,288.54238,1255.0508)"
     id="g2991">
    <path
       d="m 1075,800 q 0,-13 -10,-23 L 599,311 q -10,-10 -23,-10 -13,0 -23,10 L 87,777 q -10,10 -10,23 0,13 10,23 l 50,50 q 10,10 23,10 13,0 23,-10 L 576,480 969,873 q 10,10 23,10 13,0 23,-10 l 50,-50 q 10,-10 10,-23 z"
       style="fill:currentColor" />
  </g>
</svg>
