<svg xmlns="http://www.w3.org/2000/svg" width="40" height="40" viewBox="0 0 40 40" fill="none">
    <g clip-path="url(#clip0)">
        <path d="M39.5 20C39.5 9.23045 30.7696 0.5 20 0.5C9.23045 0.5 0.5 9.23045 0.5 20C0.5 30.7696 9.23045 39.5 20 39.5C30.7696 39.5 39.5 30.7696 39.5 20Z" fill="#0D1117"/>
        <path d="M34.2843 34.2842C42.0948 26.4737 42.0948 13.8104 34.2843 5.99988L6 34.2842C13.8105 42.0947 26.4738 42.0947 34.2843 34.2842Z" fill="#C9D1D9"/>
        <path d="M34.1421 34.2842C41.9526 26.4737 41.9526 13.8105 34.1421 6L20 20.1421L34.1421 34.2842Z" fill="#F0F6FC"/>
        <path d="M39.5 20C39.5 9.23045 30.7696 0.5 20 0.5C9.23045 0.5 0.5 9.23045 0.5 20C0.5 30.7696 9.23045 39.5 20 39.5C30.7696 39.5 39.5 30.7696 39.5 20Z" stroke="#E1E4E8"/>
    </g>
    <defs>
        <clipPath id="clip0">
            <rect width="40" height="40" fill="white"/>
        </clipPath>
    </defs>
</svg>