<?xml version="1.0" encoding="utf-8"?>
<!-- Generator: Adobe Illustrator 23.0.1, SVG Export Plug-In . SVG Version: 6.00 Build 0)  -->
<svg version="1.1" xmlns="http://www.w3.org/2000/svg" xmlns:xlink="http://www.w3.org/1999/xlink" x="0px" y="0px"
	 viewBox="0 0 128 128" style="enable-background:new 0 0 128 128;" xml:space="preserve">
<style type="text/css">
	.st0{fill:#202124;}
	.st1{fill:#A1F7B5;}
</style>
<g id="Layer_2">
</g>
<g id="Layer_1">
	<g>
		<path class="st0" d="M124,128H4c-2.2,0-4-1.8-4-4V4c0-2.2,1.8-4,4-4h120c2.2,0,4,1.8,4,4v120C128,126.2,126.2,128,124,128z"/>
		<path class="st1" d="M114.1,64c0,0.2,0,0.4,0,0.5c-0.1,7.1-6.6,12-13.7,12H81.2c-5.2,0-9.4,4.2-9.4,9.4c0,0.7,0.1,1.3,0.2,1.9
			c0.4,2,1.3,3.9,2.1,5.9c1.2,2.7,2.4,5.4,2.4,8.2c0,6.2-4.2,11.9-10.5,12.1c-0.7,0-1.4,0-2.1,0c-27.7,0-50.1-22.4-50.1-50.1
			S36.3,13.9,64,13.9S114.1,36.3,114.1,64z M38.9,70.3c0-3.5-2.8-6.3-6.3-6.3s-6.3,2.8-6.3,6.3c0,3.5,2.8,6.3,6.3,6.3
			S38.9,73.7,38.9,70.3z M38.9,51.5c3.5,0,6.3-2.8,6.3-6.3s-2.8-6.3-6.3-6.3s-6.3,2.8-6.3,6.3S35.5,51.5,38.9,51.5z M70.3,32.7
			c0-3.5-2.8-6.3-6.3-6.3c-3.5,0-6.3,2.8-6.3,6.3s2.8,6.3,6.3,6.3S70.3,36.1,70.3,32.7z M89.1,51.5c3.5,0,6.3-2.8,6.3-6.3
			s-2.8-6.3-6.3-6.3c-3.5,0-6.3,2.8-6.3,6.3S85.6,51.5,89.1,51.5z"/>
	</g>
</g>
</svg>
