<?xml version="1.0" encoding="iso-8859-1"?>
<!-- Generator: Adobe Illustrator 19.0.0, SVG Export Plug-In . SVG Version: 6.00 Build 0)  -->
<svg version="1.1" id="Layer_1" xmlns="http://www.w3.org/2000/svg" xmlns:xlink="http://www.w3.org/1999/xlink" x="0px" y="0px"
	 viewBox="0 0 511.999 511.999" style="enable-background:new 0 0 511.999 511.999;" xml:space="preserve">
<path style="fill:#FFCE54;" d="M490.662,255.999c0,129.6-105.068,234.66-234.661,234.66c-129.607,0-234.668-105.061-234.668-234.66
	c0-129.607,105.061-234.667,234.668-234.667C385.594,21.332,490.662,126.392,490.662,255.999z"/>
<path style="fill:#F6BB42;" d="M500.566,11.433C477.1-12.02,421.443,1.746,353.172,42.347c7.688,3.5,15.172,7.406,22.391,11.695
	c3.359-1.883,6.703-3.703,10-5.453c55.131-29.132,89.912-32.077,99.912-22.069c10,10.007,7.062,44.788-22.062,99.912
	c-14.969,28.328-35.031,58.897-59.625,90.865c-25.662,33.352-55.084,66.679-87.443,99.053
	c-32.375,32.344-65.702,61.78-99.045,87.437c-31.968,24.593-62.545,44.655-90.874,59.624
	c-55.124,29.124-89.889,32.062-99.904,22.062c-10.016-9.999-7.078-44.78,22.078-99.904c1.734-3.312,3.562-6.641,5.437-10
	c-4.281-7.219-8.187-14.702-11.687-22.39C1.74,421.442-12.025,477.098,11.443,500.565c41.656,41.655,184.903-34.077,319.979-169.153
	C466.475,196.36,542.223,53.088,500.566,11.433z"/>
<g>
</g>
<g>
</g>
<g>
</g>
<g>
</g>
<g>
</g>
<g>
</g>
<g>
</g>
<g>
</g>
<g>
</g>
<g>
</g>
<g>
</g>
<g>
</g>
<g>
</g>
<g>
</g>
<g>
</g>
</svg>
