<?xml version="1.0" encoding="iso-8859-1"?>
<!-- Generator: Adobe Illustrator 19.0.0, SVG Export Plug-In . SVG Version: 6.00 Build 0)  -->
<svg version="1.1" id="Layer_1" xmlns="http://www.w3.org/2000/svg" xmlns:xlink="http://www.w3.org/1999/xlink" x="0px" y="0px"
	 viewBox="0 0 511.995 511.995" style="enable-background:new 0 0 511.995 511.995;" xml:space="preserve">
<path style="fill:#4FC1E9;" d="M426.649,256.035c0,94.258-76.397,170.664-170.647,170.664c-94.249,0-170.655-76.405-170.655-170.664
	c0-94.249,76.406-170.655,170.655-170.655C350.252,85.38,426.649,161.786,426.649,256.035z"/>
<path style="fill:#3BAFDA;" d="M300.783,0.56c-1.609-0.289-3.234-0.469-4.891-0.531c-30.266-1.203-63.375,34.93-90.343,92.937
	c8.625-2.664,17.547-4.664,26.703-5.937c1.578-3.008,3.172-5.961,4.797-8.828c10.938-19.414,22.594-34.898,33.75-44.796
	c9.109-8.086,17.5-12.211,24.25-11.945l0,0c0.688,0.023,1.359,0.094,2.031,0.219c8.047,1.422,14.656,9.82,18.766,16.617
	c7.547,12.438,13.656,30.687,17.688,52.78c4.312,23.586,6.234,50.68,5.688,80.508c-0.578,31.25-3.828,64.023-9.688,97.414
	c-11.156,63.625-30.547,122.14-54.578,164.812c-10.938,19.406-22.609,34.891-33.75,44.781c-9.109,8.094-17.5,12.219-24.25,11.953
	c-0.688-0.031-1.359-0.094-2.047-0.219c-8.047-1.422-14.641-9.828-18.766-16.609c-7.531-12.438-13.64-30.688-17.687-52.781
	c-0.828-4.531-1.562-9.203-2.203-13.984c-8.109-4.297-15.828-9.219-23.094-14.719c5.938,67.062,26.547,113.641,58.046,119.203
	c1.625,0.297,3.25,0.469,4.891,0.531c51.171,2.03,110.484-102.562,134.437-239.249C375.275,131.637,353.002,9.787,300.783,0.56z"/>
<g>
</g>
<g>
</g>
<g>
</g>
<g>
</g>
<g>
</g>
<g>
</g>
<g>
</g>
<g>
</g>
<g>
</g>
<g>
</g>
<g>
</g>
<g>
</g>
<g>
</g>
<g>
</g>
<g>
</g>
</svg>
